<svg width="800" height="600" xmlns="http://www.w3.org/2000/svg">
  <defs>
    <!-- 基础渐变背景 -->
    <linearGradient id="bgGradient" x1="0%" y1="0%" x2="100%" y2="100%">
      <stop offset="0%" stop-color="#40a9ff"/>
      <stop offset="100%" stop-color="#1a7fd9"/>
    </linearGradient>
    
    <!-- 网格图案 -->
    <pattern id="gridPattern" width="40" height="40" patternUnits="userSpaceOnUse">
      <path d="M 40 0 L 0 0 0 40" fill="none" stroke="rgba(255, 255, 255, 0.15)" stroke-width="0.5"/>
    </pattern>
    
    <!-- 代码纹理 -->
    <pattern id="codePattern" width="200" height="120" patternUnits="userSpaceOnUse" patternTransform="rotate(15)">
      <text x="10" y="20" font-family="monospace" font-size="12" fill="rgba(255,255,255,0.1)">{ }</text>
      <text x="50" y="40" font-family="monospace" font-size="12" fill="rgba(255,255,255,0.1)">;</text>
      <text x="80" y="60" font-family="monospace" font-size="12" fill="rgba(255,255,255,0.1)">#</text>
    </pattern>
    
    <!-- Logo渐变 -->
    <linearGradient id="logoGradient" x1="0%" y1="0%" x2="100%" y2="100%">
      <stop offset="0%" stop-color="#ffffff"/>
      <stop offset="100%" stop-color="#c2e4ff"/>
    </linearGradient>
    
    <!-- 发光效果 -->
    <filter id="logoGlow" x="-30%" y="-30%" width="160%" height="160%">
      <feGaussianBlur stdDeviation="4" result="blur"/>
      <feComposite in="SourceGraphic" in2="blur" operator="over"/>
    </filter>
  </defs>
  
  <!-- 背景层 -->
  <rect width="100%" height="100%" fill="url(#bgGradient)"/>
  <rect width="100%" height="100%" fill="url(#gridPattern)"/>
  <rect width="100%" height="100%" fill="url(#codePattern)"/>
  
  <!-- 几何装饰元素 -->
  <circle cx="70%" cy="50%" r="300" fill="none" stroke="rgba(255, 255, 255, 0.1)" stroke-width="1"/>
  <line x1="0" y1="0" x2="800" y2="600" stroke="rgba(255, 255, 255, 0.08)" stroke-width="2"/>
  <line x1="800" y1="0" x2="0" y2="600" stroke="rgba(255, 255, 255, 0.08)" stroke-width="2"/>
  
  <!-- C-Judge Logo - 左侧水平版本 -->
  <g transform="translate(50, 100)" filter="url(#logoGlow)">
    <!-- C字母符号 -->
    <path d="M 0 80 Q 40 80 40 40 Q 40 0 80 0 L 120 0 Q 160 0 160 40 Q 160 80 120 80" 
          fill="none" 
          stroke="url(#logoGradient)" 
          stroke-width="8" 
          stroke-linecap="round"/>
    
    <!-- 主文字 -->
    <text x="180" y="60" 
          font-family="'Arial Black', sans-serif" 
          font-size="72" 
          font-weight="bold" 
          fill="url(#logoGradient)">
      -Judge
    </text>
    
    <!-- 副标题 -->
    <text x="0" y="120" 
          font-family="monospace" 
          font-size="16" 
          fill="rgba(255,255,255,0.8)" 
          letter-spacing="2px">
      CODE EVALUATION SYSTEM
    </text>
  </g>
  
  <!-- 右侧装饰线条 -->
  <path d="M 600 100 Q 650 150 700 100 T 800 100" 
        fill="none" 
        stroke="rgba(255, 255, 255, 0.3)" 
        stroke-width="2" 
        stroke-dasharray="5,3"/>
</svg>