<?xml version="1.0" standalone="no"?><!DOCTYPE svg PUBLIC "-//W3C//DTD SVG 1.1//EN" "http://www.w3.org/Graphics/SVG/1.1/DTD/svg11.dtd"><svg t="1753366129273" class="icon" viewBox="0 0 1024 1024" version="1.1" xmlns="http://www.w3.org/2000/svg" p-id="17171" xmlns:xlink="http://www.w3.org/1999/xlink" width="200" height="200"><path d="M597.568 86.208a32 32 0 0 1 37.056-16.32 457.92 457.92 0 0 1 189.632 106.112 32 32 0 0 1 6.912 37.632A96 96 0 0 0 917.312 352h0.64l5.952 0.32a32 32 0 0 1 25.728 22.08 460.544 460.544 0 0 1 11.712 229.952 32 32 0 0 1-34.496 25.472 96 96 0 0 0-82.944 157.44 32 32 0 0 1-1.408 42.752 458.56 458.56 0 0 1-199.424 121.6 32 32 0 0 1-39.616-20.864 96 96 0 0 0-182.912 0 32 32 0 0 1-39.68 20.928 458.56 458.56 0 0 1-199.36-121.664 32 32 0 0 1-1.408-42.88 96 96 0 0 0-82.944-157.44 32 32 0 0 1-34.56-25.344 460.544 460.544 0 0 1 11.776-229.952 32 32 0 0 1 30.976-22.4l10.56-0.448a96 96 0 0 0 76.928-137.92 32 32 0 0 1 6.912-37.632 457.92 457.92 0 0 1 189.632-106.112 32 32 0 0 1 37.056 16.32 96 96 0 0 0 171.136 0z m42.368 52.352l-3.392 4.544a159.872 159.872 0 0 1-249.088 0L384 138.56l-17.408 6.4c-32.512 12.928-63.104 30.08-91.072 51.008l-16 12.672 2.944 10.88c1.92 7.936 3.136 16 3.712 24.128L266.688 256A160 160 0 0 1 137.6 412.992l-8.192 1.28-4.032 17.856a395.136 395.136 0 0 0-7.616 59.648L117.312 512c0 13.44 0.64 26.88 2.048 40.128l1.664 13.888 6.528 0.64A160 160 0 0 1 266.24 714.88l0.384 10.496c0 25.536-6.016 50.112-17.152 72.192l-3.456 6.016 11.2 9.984c31.04 26.24 65.92 47.552 103.488 63.168l11.904 4.544 6.528-10.56a160.064 160.064 0 0 1 121.216-70.208L512 800a160 160 0 0 1 138.688 80.192l0.576 1.024 11.968-4.544a394.56 394.56 0 0 0 103.488-63.168l11.136-9.984-3.392-6.016a159.296 159.296 0 0 1-16.64-59.52l-0.512-12.672a160 160 0 0 1 139.136-158.656l6.464-0.64 1.728-13.888c0.64-6.592 1.216-13.312 1.536-19.968L906.688 512c0-27.072-2.752-53.824-8.128-79.872l-4.096-17.856-8.128-1.28a160.064 160.064 0 0 1-128.64-146.496L757.312 256c0-12.416 1.408-24.64 4.224-36.48l2.88-10.88-16-12.672a393.92 393.92 0 0 0-91.008-51.008l-17.472-6.4zM512 330.688a181.312 181.312 0 1 1 0 362.624 181.312 181.312 0 0 1 0-362.624z m0 64a117.312 117.312 0 1 0 0 234.624 117.312 117.312 0 0 0 0-234.624z" fill="#2c2c2c" p-id="17172"></path></svg>