<?xml version="1.0" standalone="no"?><!DOCTYPE svg PUBLIC "-//W3C//DTD SVG 1.1//EN" "http://www.w3.org/Graphics/SVG/1.1/DTD/svg11.dtd"><svg t="1753366099407" class="icon" viewBox="0 0 1024 1024" version="1.1" xmlns="http://www.w3.org/2000/svg" p-id="16014" xmlns:xlink="http://www.w3.org/1999/xlink" width="200" height="200"><path d="M435.4 472.78c173.52 0 314.38-43.86 314.38-98.28v-78.43c0-54.42-140.86-98.28-314.38-98.28-173.52 0-314.38 43.86-314.38 98.28v78.43c0.01 54.1 140.55 98.28 314.38 98.28zM897.36 539.32s-42.27 42.71-46.74 46.96c-4.25 4.25-19.01 3.8-19.01 3.8s-38.69-4.25-44.28-9.84c-5.59-5.59-9.39-46.07-9.39-46.07s-1.12-11.18 4.47-16.77l46.97-46.96s5.37-6.04-2.46-6.04c-24.82 0-75.14 0.44-99.52 24.82l-4.92 4.92c-28.85 29.07-30.64 72.68-7.38 103.99L572.41 727.4c-11.41 11.41-26.39 42.27 0 68.43 26.39 26.39 57.25 11.41 68.43 0 0 0 129.04-142.68 128.81-142.45l0.22-0.22c31.31 23.48 74.7 21.69 103.77-7.38l4.92-4.92c23.71-23.7 24.38-73.58 24.38-98.85 0.46-7.83-5.58-2.69-5.58-2.69z m-286.93 242.2c-13.2 0-23.93-10.73-23.93-23.93s10.73-23.93 23.93-23.93c13.19 0 23.93 10.73 23.93 23.93s-10.73 23.93-23.93 23.93zM533.74 703.51c-30.94 3.18-64 4.9-98.33 4.9-173.52 0-314.06-43.86-314.06-98.28v117.81c0 54.1 140.54 98.28 314.38 98.28 23.87 0 47.12-0.83 69.48-2.41a70.934 70.934 0 0 1-6.58-5.83c-31.88-31.61-13.78-68.89 0-82.66l35.11-31.81z" fill="#040000" p-id="16015"></path><path d="M435.4 649.5c65.47 0 126.29-6.25 176.66-16.95l58.92-53.38c-16.37-22.04-22.47-49.13-17.8-74.85-56.51 16.96-133.27 27.36-217.77 27.36-173.52 0-314.38-43.86-314.38-98.28v117.81c0 54.11 140.54 98.29 314.37 98.29z" fill="#040000" p-id="16016"></path></svg>